<svg width="416" height="405" viewBox="0 0 416 405" fill="none" xmlns="http://www.w3.org/2000/svg">
<path d="M25.8633 51.021V99.021H37.3633V60.521L202.863 15.521L309.863 44.521L332.363 39.521L202.863 0.521027L25.8633 51.021Z" fill="#F97809"/>
<path d="M27.8633 192.521L25.8633 110.521H37.3633V185.021L27.8633 192.521Z" fill="#F97809"/>
<path d="M62.3633 169.521L50.3633 179.021L49.3633 69.521L202.863 26.521L280.363 49.021L263.363 55.521L202.863 39.521L62.3633 79.521V169.521Z" fill="#F97809"/>
<path d="M193.863 104.021C78.8633 160.021 0.363281 243.021 0.363281 243.021C0.363281 243.021 76.6467 194.744 127.363 167.021C176.939 139.922 256.863 102.521 256.863 102.521C256.863 102.521 196.863 169.521 157.863 215.021C121.541 257.397 70.3633 327.521 70.3633 327.521C70.3633 327.521 148.776 248.399 202.863 198.021C256.951 147.643 347.363 69.521 347.363 69.521C347.363 69.521 273.677 143.331 226.863 191.021C179.949 238.814 107.363 314.021 107.363 314.021L414.363 39.521C414.363 39.521 300.363 44.521 193.863 104.021Z" fill="#F97809"/>
<path d="M77.3633 292.521L68.8633 300.521C68.8633 300.521 55.083 283.209 48.3633 270.021C42.6443 258.797 35.3633 239.521 35.3633 239.521L45.3633 233.021C53.8261 256.894 61.5557 270.323 77.3633 292.521Z" fill="#F97809"/>
<path d="M93.3633 272.021L83.8633 281.521C83.8633 281.521 75.583 270.709 68.8633 257.521C63.1443 246.297 55.8633 227.021 55.8633 227.021L66.3633 220.021C75.3633 244.021 78.8633 249.521 93.3633 272.021Z" fill="#F97809"/>
<path d="M202.863 376.021C202.863 376.021 268.561 345.78 298.863 313.021C328.318 281.178 344.863 261.521 352.863 216.021C359.359 179.079 355.863 114.521 355.863 114.521L342.863 123.521C342.863 123.521 348.866 185.084 336.863 221.521C323.745 261.343 308.863 275.521 285.863 306.521C259.863 329.021 202.863 361.521 202.863 361.521L163.363 339.021L128.363 314.021L118.863 322.021C118.863 322.021 141.461 340.977 157.863 351.521C174.265 362.065 202.863 376.021 202.863 376.021Z" fill="#F97809"/>
<path d="M377.863 142.521V93.521L367.363 102.521V142.521H377.863Z" fill="#F97809"/>
<path d="M145.863 355.521L202.863 388.521C202.863 388.521 293.651 344.541 327.863 292.021C365.632 247.521 366.363 154.521 366.363 154.521H378.863C378.863 154.521 383.363 252.021 333.863 303.521C302.363 351.521 202.863 403.521 202.863 403.521L139.363 365.521L145.863 355.521Z" fill="#F97809"/>
<path d="M91.3633 327.521L99.3633 319.521L136.863 351.521L130.363 359.021L91.3633 327.521Z" fill="#F97809"/>
<path d="M25.8633 51.021V99.021H37.3633V60.521L202.863 15.521L309.863 44.521L332.363 39.521L202.863 0.521027L25.8633 51.021Z" stroke="black"/>
<path d="M27.8633 192.521L25.8633 110.521H37.3633V185.021L27.8633 192.521Z" stroke="black"/>
<path d="M62.3633 169.521L50.3633 179.021L49.3633 69.521L202.863 26.521L280.363 49.021L263.363 55.521L202.863 39.521L62.3633 79.521V169.521Z" stroke="black"/>
<path d="M193.863 104.021C78.8633 160.021 0.363281 243.021 0.363281 243.021C0.363281 243.021 76.6467 194.744 127.363 167.021C176.939 139.922 256.863 102.521 256.863 102.521C256.863 102.521 196.863 169.521 157.863 215.021C121.541 257.397 70.3633 327.521 70.3633 327.521C70.3633 327.521 148.776 248.399 202.863 198.021C256.951 147.643 347.363 69.521 347.363 69.521C347.363 69.521 273.677 143.331 226.863 191.021C179.949 238.814 107.363 314.021 107.363 314.021L414.363 39.521C414.363 39.521 300.363 44.521 193.863 104.021Z" stroke="black"/>
<path d="M77.3633 292.521L68.8633 300.521C68.8633 300.521 55.083 283.209 48.3633 270.021C42.6443 258.797 35.3633 239.521 35.3633 239.521L45.3633 233.021C53.8261 256.894 61.5557 270.323 77.3633 292.521Z" stroke="black"/>
<path d="M93.3633 272.021L83.8633 281.521C83.8633 281.521 75.583 270.709 68.8633 257.521C63.1443 246.297 55.8633 227.021 55.8633 227.021L66.3633 220.021C75.3633 244.021 78.8633 249.521 93.3633 272.021Z" stroke="black"/>
<path d="M202.863 376.021C202.863 376.021 268.561 345.78 298.863 313.021C328.318 281.178 344.863 261.521 352.863 216.021C359.359 179.079 355.863 114.521 355.863 114.521L342.863 123.521C342.863 123.521 348.866 185.084 336.863 221.521C323.745 261.343 308.863 275.521 285.863 306.521C259.863 329.021 202.863 361.521 202.863 361.521L163.363 339.021L128.363 314.021L118.863 322.021C118.863 322.021 141.461 340.977 157.863 351.521C174.265 362.065 202.863 376.021 202.863 376.021Z" stroke="black"/>
<path d="M377.863 142.521V93.521L367.363 102.521V142.521H377.863Z" stroke="black"/>
<path d="M145.863 355.521L202.863 388.521C202.863 388.521 293.651 344.541 327.863 292.021C365.632 247.521 366.363 154.521 366.363 154.521H378.863C378.863 154.521 383.363 252.021 333.863 303.521C302.363 351.521 202.863 403.521 202.863 403.521L139.363 365.521L145.863 355.521Z" stroke="black"/>
<path d="M91.3633 327.521L99.3633 319.521L136.863 351.521L130.363 359.021L91.3633 327.521Z" stroke="black"/>
</svg>
