<svg width="343" height="168" viewBox="0 0 343 168" fill="none" xmlns="http://www.w3.org/2000/svg">
<path d="M80.0756 70.316L57.5 25.816L36.0098 70.316L58 109.316L80.0756 70.316Z" fill="#00BFFF"/>
<path d="M84.2879 78.619L57.5 128.316H109.5L84.2879 78.619Z" fill="#007FFF"/>
<path d="M57.5 128.316L32 78.619L8 128.316H57.5Z" fill="#01FFFF"/>
<path d="M80.0756 70.316L58 109.316L36.0098 70.316L32 78.619L57.5 128.316L84.2879 78.619H334.5V70.316H80.0756Z" fill="#0000FF"/>
<path d="M95.1496 58V22.5977H106.174V26.8418H99.7043V37.3745H105.734V41.6187H99.7043V58H95.1496ZM107.546 58L114.222 22.3906H118.958L125.583 58H121.184L119.916 50.1587H113.342L111.945 58H107.546ZM114.015 45.9146H119.113L116.629 31.0859H116.5L114.015 45.9146ZM129.103 58V22.5977H134.511C137.186 22.5977 139.403 23.4603 141.162 25.1855C142.939 26.9108 143.828 28.9639 143.828 31.3447C143.828 34.5365 142.292 37.0812 139.221 38.979C142.827 40.6698 144.63 43.6027 144.63 47.7778C144.63 50.797 143.655 53.2555 141.706 55.1533C139.756 57.0511 136.987 58 133.399 58H129.103ZM133.657 37.6074H134.071C135.659 37.6074 136.918 37.1071 137.85 36.1064C138.799 35.1058 139.273 33.7687 139.273 32.0952C139.273 30.4217 138.816 29.1278 137.902 28.2134C137.004 27.299 135.728 26.8418 134.071 26.8418H133.657V37.6074ZM133.657 53.7559H134.46C136.219 53.7559 137.591 53.2469 138.574 52.229C139.575 51.1938 140.075 49.7619 140.075 47.9331C140.075 46.1216 139.584 44.6551 138.6 43.5337C137.634 42.395 136.254 41.8257 134.46 41.8257H133.657V53.7559ZM149.495 58V22.5977H153.299C156.336 22.5977 158.648 23.4948 160.235 25.2891C161.84 27.0661 162.642 29.4383 162.642 32.4058C162.642 35.77 161.417 38.2975 158.967 39.9883C160.865 41.334 162.478 44.9139 163.806 50.728L165.437 58H160.675L159.303 51.8926C158.32 47.6139 157.466 44.8966 156.741 43.7407C156.017 42.5675 155.12 42.0413 154.05 42.1621V58H149.495ZM154.05 37.918H154.257C156.81 37.918 158.087 36.1323 158.087 32.561C158.087 28.7655 156.741 26.859 154.05 26.8418V37.918ZM168.697 58V22.5977H173.252V58H168.697ZM192.868 51.6855V56.4731C191.16 57.8016 189.357 58.4658 187.46 58.4658C184.423 58.4658 182.077 56.9131 180.421 53.8076C178.764 50.7021 177.936 46.2682 177.936 40.5059C177.936 34.7435 178.764 30.2406 180.421 26.9971C182.094 23.7536 184.475 22.1318 187.563 22.1318C189.047 22.1318 190.677 22.7443 192.454 23.9692V28.5757C190.936 27.092 189.418 26.3501 187.9 26.3501C186.071 26.3501 184.742 27.4284 183.914 29.585C183.103 31.7243 182.698 35.2956 182.698 40.2988C182.698 45.2503 183.112 48.813 183.94 50.9868C184.768 53.1606 186.14 54.2476 188.055 54.2476C189.366 54.2476 190.971 53.3936 192.868 51.6855ZM205.213 58.4658C202.418 58.4658 200.14 56.8527 198.381 53.6265C196.621 50.383 195.741 45.9404 195.741 40.2988C195.741 34.9678 196.569 30.6115 198.225 27.23C199.899 23.8312 202.228 22.1318 205.213 22.1318C208.111 22.1318 210.414 23.8226 212.122 27.2041C213.848 30.5856 214.71 34.9505 214.71 40.2988C214.71 45.9922 213.804 50.4434 211.993 53.6523C210.181 56.8613 207.921 58.4658 205.213 58.4658ZM205.161 26.3501C203.66 26.3501 202.504 27.5923 201.693 30.0767C200.899 32.5438 200.503 35.9512 200.503 40.2988C200.503 44.8018 200.917 48.2523 201.745 50.6504C202.573 53.0485 203.746 54.2476 205.264 54.2476C206.714 54.2476 207.852 53.0226 208.68 50.5728C209.526 48.1229 209.948 44.6982 209.948 40.2988C209.948 35.8304 209.526 32.3885 208.68 29.9731C207.835 27.5578 206.662 26.3501 205.161 26.3501ZM219.627 58V22.5977H223.328L231.169 44.4395H231.273V22.5977H235.465V58H231.764L223.923 35.9512H223.82V58H219.627ZM240.304 57.0942V52.3843C241.667 53.6955 242.987 54.3511 244.264 54.3511C245.213 54.3511 246.024 54.0146 246.696 53.3418C247.369 52.6689 247.706 51.8581 247.706 50.9092C247.706 50.0983 247.516 49.1149 247.136 47.959C246.757 46.8031 245.73 44.6724 244.057 41.5669C242.401 38.4442 241.322 36.0806 240.822 34.4761C240.322 32.8716 240.071 31.4569 240.071 30.2319C240.071 27.8511 240.744 25.9102 242.09 24.4092C243.453 22.891 245.187 22.1318 247.292 22.1318C248.482 22.1318 249.75 22.4424 251.096 23.0635V27.3594C249.854 26.6175 248.793 26.2466 247.913 26.2466C245.618 26.2466 244.471 27.3766 244.471 29.6367C244.471 30.4648 244.661 31.4655 245.04 32.6387C245.437 33.7946 246.464 35.9167 248.12 39.0049C249.793 42.0758 250.872 44.4222 251.355 46.0439C251.855 47.6484 252.105 49.0718 252.105 50.314C252.105 52.7293 251.424 54.6961 250.061 56.2144C248.715 57.7153 246.964 58.4658 244.807 58.4658C243.255 58.4658 241.754 58.0086 240.304 57.0942ZM259.481 58V26.8418H254.02V22.5977H269.496V26.8418H264.061V58H259.481ZM273.248 58V22.5977H277.052C280.089 22.5977 282.401 23.4948 283.988 25.2891C285.592 27.0661 286.395 29.4383 286.395 32.4058C286.395 35.77 285.17 38.2975 282.72 39.9883C284.618 41.334 286.231 44.9139 287.559 50.728L289.19 58H284.428L283.056 51.8926C282.073 47.6139 281.219 44.8966 280.494 43.7407C279.77 42.5675 278.873 42.0413 277.803 42.1621V58H273.248ZM277.803 37.918H278.01C280.563 37.918 281.84 36.1323 281.84 32.561C281.84 28.7655 280.494 26.859 277.803 26.8418V37.918ZM292.347 22.5977H296.902V49.2012C296.902 52.5654 298.014 54.2476 300.24 54.2476C301.223 54.2476 302.026 53.8249 302.647 52.9795C303.268 52.1341 303.578 50.9437 303.578 49.4082V22.5977H308.133V48.8906C308.133 51.9961 307.348 54.3683 305.778 56.0073C304.208 57.6463 302.362 58.4658 300.24 58.4658C297.98 58.4658 296.099 57.6118 294.598 55.9038C293.097 54.1958 292.347 51.9788 292.347 49.2529V22.5977ZM327.646 51.6855V56.4731C325.938 57.8016 324.135 58.4658 322.237 58.4658C319.201 58.4658 316.854 56.9131 315.198 53.8076C313.542 50.7021 312.714 46.2682 312.714 40.5059C312.714 34.7435 313.542 30.2406 315.198 26.9971C316.871 23.7536 319.252 22.1318 322.341 22.1318C323.824 22.1318 325.455 22.7443 327.232 23.9692V28.5757C325.713 27.092 324.195 26.3501 322.677 26.3501C320.848 26.3501 319.52 27.4284 318.692 29.585C317.881 31.7243 317.475 35.2956 317.475 40.2988C317.475 45.2503 317.889 48.813 318.717 50.9868C319.546 53.1606 320.917 54.2476 322.832 54.2476C324.143 54.2476 325.748 53.3936 327.646 51.6855Z" fill="white"/>
<path d="M124.046 127.066V91.6636H128.601V127.066H124.046ZM134.708 127.066V91.6636H138.409L146.25 113.505H146.354V91.6636H150.546V127.066H146.845L139.004 105.017H138.901V127.066H134.708ZM156.602 127.066V91.6636H161.622C169.714 91.6636 173.759 97.5468 173.759 109.313C173.759 115.196 172.75 119.63 170.732 122.615C168.73 125.582 165.91 127.066 162.269 127.066H156.602ZM161.156 122.822H161.829C164.521 122.822 166.418 121.795 167.523 119.742C168.644 117.672 169.205 114.265 169.205 109.52C169.205 104.569 168.679 101.066 167.626 99.0132C166.574 96.9429 164.676 95.9078 161.933 95.9078H161.156V122.822ZM178.651 91.6636H183.205V118.267C183.205 121.631 184.318 123.314 186.544 123.314C187.527 123.314 188.329 122.891 188.95 122.045C189.571 121.2 189.882 120.01 189.882 118.474V91.6636H194.437V117.957C194.437 121.062 193.652 123.434 192.082 125.073C190.512 126.712 188.666 127.532 186.544 127.532C184.284 127.532 182.403 126.678 180.902 124.97C179.401 123.262 178.651 121.045 178.651 118.319V91.6636ZM199.017 126.16V121.45C200.38 122.761 201.7 123.417 202.977 123.417C203.926 123.417 204.736 123.081 205.409 122.408C206.082 121.735 206.419 120.924 206.419 119.975C206.419 119.164 206.229 118.181 205.849 117.025C205.47 115.869 204.443 113.738 202.77 110.633C201.113 107.51 200.035 105.147 199.535 103.542C199.035 101.938 198.784 100.523 198.784 99.2979C198.784 96.9171 199.457 94.9761 200.803 93.4752C202.166 91.9569 203.9 91.1978 206.005 91.1978C207.195 91.1978 208.463 91.5084 209.809 92.1295V96.4254C208.567 95.6835 207.506 95.3126 206.626 95.3126C204.331 95.3126 203.184 96.4426 203.184 98.7027C203.184 99.5308 203.374 100.531 203.753 101.705C204.15 102.861 205.176 104.983 206.833 108.071C208.506 111.142 209.584 113.488 210.068 115.11C210.568 116.714 210.818 118.138 210.818 119.38C210.818 121.795 210.137 123.762 208.774 125.28C207.428 126.781 205.677 127.532 203.52 127.532C201.967 127.532 200.466 127.075 199.017 126.16ZM218.194 127.066V95.9078H212.733V91.6636H228.209V95.9078H222.774V127.066H218.194ZM231.961 127.066V91.6636H235.765C238.802 91.6636 241.114 92.5608 242.701 94.355C244.305 96.1321 245.108 98.5043 245.108 101.472C245.108 104.836 243.883 107.364 241.433 109.054C243.331 110.4 244.944 113.98 246.272 119.794L247.903 127.066H243.141L241.769 120.959C240.786 116.68 239.932 113.963 239.207 112.807C238.483 111.634 237.585 111.107 236.516 111.228V127.066H231.961ZM236.516 106.984H236.723C239.276 106.984 240.553 105.198 240.553 101.627C240.553 97.8314 239.207 95.925 236.516 95.9078V106.984ZM251.163 127.066V91.6636H255.718V127.066H251.163ZM259.056 127.066L265.733 91.4566H270.469L277.094 127.066H272.695L271.426 119.225H264.853L263.456 127.066H259.056ZM265.526 114.981H270.624L268.14 100.152H268.01L265.526 114.981ZM280.613 127.066V91.6636H285.168V122.822H293.915V127.066H280.613ZM297.176 127.066V91.6636H309.779V95.9078H301.731V106.492H309.106V110.736H301.731V122.822H310.219V127.066H297.176ZM315.11 126.16V121.45C316.473 122.761 317.793 123.417 319.07 123.417C320.018 123.417 320.829 123.081 321.502 122.408C322.175 121.735 322.511 120.924 322.511 119.975C322.511 119.164 322.322 118.181 321.942 117.025C321.563 115.869 320.536 113.738 318.862 110.633C317.206 107.51 316.128 105.147 315.628 103.542C315.127 101.938 314.877 100.523 314.877 99.2979C314.877 96.9171 315.55 94.9761 316.896 93.4752C318.259 91.9569 319.993 91.1978 322.097 91.1978C323.288 91.1978 324.556 91.5084 325.902 92.1295V96.4254C324.659 95.6835 323.598 95.3126 322.718 95.3126C320.424 95.3126 319.277 96.4426 319.277 98.7027C319.277 99.5308 319.466 100.531 319.846 101.705C320.243 102.861 321.269 104.983 322.925 108.071C324.599 111.142 325.677 113.488 326.16 115.11C326.661 116.714 326.911 118.138 326.911 119.38C326.911 121.795 326.229 123.762 324.866 125.28C323.521 126.781 321.77 127.532 319.613 127.532C318.06 127.532 316.559 127.075 315.11 126.16Z" fill="white"/>
<path d="M8.75 156.066L10.7109 144.613H11.9688L10.0078 156.066H8.75ZM12.0938 156.066L13.5156 147.769H14.5625L14.3203 149.214C14.8099 148.6 15.2552 148.175 15.6562 147.941C16.0573 147.701 16.4453 147.582 16.8203 147.582C17.3464 147.582 17.7708 147.759 18.0938 148.113C18.4219 148.467 18.5859 148.97 18.5859 149.621C18.5859 149.912 18.5286 150.386 18.4141 151.043L17.5547 156.066H16.3906L17.2969 150.808C17.3854 150.293 17.4297 149.912 17.4297 149.668C17.4297 149.381 17.3464 149.157 17.1797 148.996C17.0182 148.829 16.7969 148.746 16.5156 148.746C15.9323 148.746 15.4062 149.003 14.9375 149.519C14.474 150.035 14.1328 150.931 13.9141 152.207L13.25 156.066H12.0938ZM19.3281 156.816L20.5 156.949V157.136C20.5 157.496 20.6016 157.766 20.8047 157.949C21.0078 158.131 21.3255 158.222 21.7578 158.222C22.4297 158.222 22.9219 158.016 23.2344 157.605C23.4531 157.303 23.651 156.641 23.8281 155.621L23.9453 154.949C23.3411 155.694 22.7005 156.066 22.0234 156.066C21.3516 156.066 20.7786 155.764 20.3047 155.16C19.8359 154.55 19.6016 153.67 19.6016 152.519C19.6016 151.613 19.7812 150.761 20.1406 149.964C20.5052 149.162 20.9427 148.566 21.4531 148.175C21.9688 147.78 22.487 147.582 23.0078 147.582C23.8984 147.582 24.5859 148.097 25.0703 149.128L25.3047 147.769H26.3594L24.9922 155.777C24.7839 156.985 24.4688 157.855 24.0469 158.386C23.5156 159.053 22.7943 159.386 21.8828 159.386C21.0182 159.386 20.3698 159.194 19.9375 158.808C19.5104 158.428 19.2969 157.905 19.2969 157.238C19.2969 157.113 19.3073 156.972 19.3281 156.816ZM20.7734 152.394C20.7734 153.014 20.8385 153.498 20.9688 153.847C21.1042 154.196 21.2865 154.462 21.5156 154.644C21.75 154.821 21.9974 154.91 22.2578 154.91C22.6068 154.91 22.9609 154.766 23.3203 154.48C23.6797 154.188 23.9896 153.707 24.25 153.035C24.5104 152.358 24.6406 151.665 24.6406 150.957C24.6406 150.259 24.4818 149.712 24.1641 149.316C23.8516 148.92 23.474 148.722 23.0312 148.722C22.6719 148.722 22.3151 148.884 21.9609 149.207C21.612 149.524 21.3255 150.014 21.1016 150.675C20.8828 151.332 20.7734 151.905 20.7734 152.394ZM31.6797 153.246L32.8125 153.386C32.625 154.194 32.1901 154.897 31.5078 155.496C30.9401 156.001 30.3073 156.253 29.6094 156.253C29.1146 156.253 28.6641 156.121 28.2578 155.855C27.8516 155.584 27.5286 155.183 27.2891 154.652C27.0495 154.115 26.9297 153.477 26.9297 152.738C26.9297 151.764 27.112 150.855 27.4766 150.011C27.8464 149.168 28.2969 148.553 28.8281 148.168C29.3594 147.777 29.9349 147.582 30.5547 147.582C31.3411 147.582 31.9818 147.881 32.4766 148.48C32.9766 149.079 33.2266 149.925 33.2266 151.019C33.2266 151.425 33.1979 151.842 33.1406 152.269H28.125C28.1094 152.436 28.1016 152.584 28.1016 152.714C28.1016 153.496 28.25 154.089 28.5469 154.496C28.8438 154.897 29.2005 155.097 29.6172 155.097C30.013 155.097 30.401 154.938 30.7812 154.621C31.1667 154.303 31.4661 153.845 31.6797 153.246ZM28.3125 151.191H32.1328V150.902C32.1328 150.162 31.987 149.608 31.6953 149.238C31.4036 148.868 31.0312 148.683 30.5781 148.683C30.0885 148.683 29.638 148.891 29.2266 149.308C28.8203 149.725 28.5156 150.352 28.3125 151.191ZM33.9844 156.066L35.4062 147.769H36.4531L36.2109 149.214C36.7005 148.6 37.1458 148.175 37.5469 147.941C37.9479 147.701 38.3359 147.582 38.7109 147.582C39.237 147.582 39.6615 147.759 39.9844 148.113C40.3125 148.467 40.4766 148.97 40.4766 149.621C40.4766 149.912 40.4193 150.386 40.3047 151.043L39.4453 156.066H38.2812L39.1875 150.808C39.276 150.293 39.3203 149.912 39.3203 149.668C39.3203 149.381 39.237 149.157 39.0703 148.996C38.9089 148.829 38.6875 148.746 38.4062 148.746C37.8229 148.746 37.2969 149.003 36.8281 149.519C36.3646 150.035 36.0234 150.931 35.8047 152.207L35.1406 156.066H33.9844ZM42.9219 146.214L43.1953 144.613H44.3516L44.0781 146.214H42.9219ZM41.2344 156.066L42.6562 147.769H43.8125L42.3906 156.066H41.2344ZM49.1953 153.246L50.3281 153.386C50.1406 154.194 49.7057 154.897 49.0234 155.496C48.4557 156.001 47.8229 156.253 47.125 156.253C46.6302 156.253 46.1797 156.121 45.7734 155.855C45.3672 155.584 45.0443 155.183 44.8047 154.652C44.5651 154.115 44.4453 153.477 44.4453 152.738C44.4453 151.764 44.6276 150.855 44.9922 150.011C45.362 149.168 45.8125 148.553 46.3438 148.168C46.875 147.777 47.4505 147.582 48.0703 147.582C48.8568 147.582 49.4974 147.881 49.9922 148.48C50.4922 149.079 50.7422 149.925 50.7422 151.019C50.7422 151.425 50.7135 151.842 50.6562 152.269H45.6406C45.625 152.436 45.6172 152.584 45.6172 152.714C45.6172 153.496 45.7656 154.089 46.0625 154.496C46.3594 154.897 46.7161 155.097 47.1328 155.097C47.5286 155.097 47.9167 154.938 48.2969 154.621C48.6823 154.303 48.9818 153.845 49.1953 153.246ZM45.8281 151.191H49.6484V150.902C49.6484 150.162 49.5026 149.608 49.2109 149.238C48.9193 148.868 48.5469 148.683 48.0938 148.683C47.6042 148.683 47.1536 148.891 46.7422 149.308C46.3359 149.725 46.0312 150.352 45.8281 151.191ZM51.5 156.066L52.9219 147.769H53.9453L53.6562 149.464C54.3385 148.209 55.0234 147.582 55.7109 147.582C55.9453 147.582 56.2318 147.683 56.5703 147.886L56.0938 149.199C55.8906 149.022 55.6771 148.933 55.4531 148.933C55.026 148.933 54.599 149.214 54.1719 149.777C53.75 150.334 53.4193 151.321 53.1797 152.738L52.6016 156.066H51.5ZM56.2422 156.066L57.6641 147.769H58.8203L57.3984 156.066H56.2422ZM57.1016 146.761L58.3047 144.613H59.7656L58.0625 146.761H57.1016ZM64.1172 155.035C63.6901 155.483 63.2891 155.798 62.9141 155.98C62.5391 156.162 62.1589 156.253 61.7734 156.253C61.1693 156.253 60.6667 156.037 60.2656 155.605C59.8698 155.173 59.6719 154.584 59.6719 153.839C59.6719 153.308 59.7865 152.845 60.0156 152.449C60.2448 152.053 60.5651 151.751 60.9766 151.543C61.3932 151.329 61.987 151.204 62.7578 151.168C63.4089 151.131 63.8542 151.092 64.0938 151.05C64.3385 151.009 64.5469 150.946 64.7188 150.863C64.8125 150.467 64.8594 150.144 64.8594 149.894C64.8594 149.545 64.7318 149.266 64.4766 149.058C64.2266 148.845 63.862 148.738 63.3828 148.738C62.4193 148.738 61.7943 149.243 61.5078 150.253L60.3359 150.128C60.8307 148.431 61.8698 147.582 63.4531 147.582C64.2344 147.582 64.8542 147.787 65.3125 148.199C65.7708 148.605 66 149.118 66 149.738C66 150.175 65.9479 150.688 65.8438 151.277L65.4688 153.339C65.349 153.996 65.2891 154.527 65.2891 154.933C65.2891 155.22 65.3333 155.597 65.4219 156.066H64.2578C64.1901 155.806 64.1432 155.462 64.1172 155.035ZM64.5469 151.863C64.2604 151.998 63.776 152.102 63.0938 152.175C62.3958 152.248 61.9167 152.342 61.6562 152.457C61.3958 152.571 61.1927 152.746 61.0469 152.98C60.901 153.214 60.8281 153.485 60.8281 153.793C60.8281 154.214 60.9453 154.548 61.1797 154.793C61.4141 155.037 61.7266 155.16 62.1172 155.16C62.487 155.16 62.8438 155.045 63.1875 154.816C63.5312 154.587 63.8099 154.256 64.0234 153.824C64.2422 153.391 64.4167 152.738 64.5469 151.863ZM67.1094 156.066L67.3828 154.464H68.7031L68.4688 155.863C68.2031 157.41 67.6172 158.248 66.7109 158.378L66.8203 157.761C67.3255 157.589 67.6615 157.024 67.8281 156.066H67.1094ZM81.6094 152.035L82.8516 152.246C82.4557 153.589 81.875 154.595 81.1094 155.261C80.349 155.928 79.5156 156.261 78.6094 156.261C77.5 156.261 76.6016 155.847 75.9141 155.019C75.2318 154.191 74.8906 152.967 74.8906 151.347C74.8906 149.457 75.3203 147.858 76.1797 146.55C77.112 145.128 78.3177 144.418 79.7969 144.418C80.7448 144.418 81.5365 144.733 82.1719 145.363C82.8125 145.993 83.1823 146.878 83.2812 148.019L82.1094 148.152C81.8646 146.506 81.1094 145.683 79.8438 145.683C78.7396 145.683 77.8464 146.248 77.1641 147.378C76.4818 148.503 76.1406 149.837 76.1406 151.378C76.1406 152.576 76.3828 153.48 76.8672 154.089C77.3516 154.694 77.9635 154.996 78.7031 154.996C79.3385 154.996 79.8958 154.766 80.375 154.308C80.9635 153.746 81.375 152.988 81.6094 152.035ZM83.8125 152.918C83.8125 151.423 84.1484 150.16 84.8203 149.128C85.4922 148.097 86.3932 147.582 87.5234 147.582C88.3151 147.582 88.9688 147.886 89.4844 148.496C90 149.1 90.2578 149.962 90.2578 151.082C90.2578 152.108 90.0807 153.024 89.7266 153.832C89.3776 154.639 88.9219 155.246 88.3594 155.652C87.8021 156.053 87.2161 156.253 86.6016 156.253C85.7943 156.253 85.1276 155.957 84.6016 155.363C84.0755 154.764 83.8125 153.949 83.8125 152.918ZM84.9766 152.777C84.9766 153.563 85.1328 154.157 85.4453 154.558C85.7578 154.959 86.1484 155.16 86.6172 155.16C86.987 155.16 87.3568 155.011 87.7266 154.714C88.0964 154.412 88.4193 153.915 88.6953 153.222C88.9714 152.53 89.1094 151.819 89.1094 151.089C89.1094 150.298 88.9531 149.699 88.6406 149.293C88.3281 148.881 87.9427 148.675 87.4844 148.675C87.0833 148.675 86.6927 148.824 86.3125 149.121C85.9375 149.418 85.6198 149.91 85.3594 150.597C85.1042 151.28 84.9766 152.006 84.9766 152.777ZM90.9062 156.066L92.3281 147.769H93.375L93.1328 149.214C93.6224 148.6 94.0677 148.175 94.4688 147.941C94.8698 147.701 95.2578 147.582 95.6328 147.582C96.1589 147.582 96.5833 147.759 96.9062 148.113C97.2344 148.467 97.3984 148.97 97.3984 149.621C97.3984 149.912 97.3411 150.386 97.2266 151.043L96.3672 156.066H95.2031L96.1094 150.808C96.1979 150.293 96.2422 149.912 96.2422 149.668C96.2422 149.381 96.1589 149.157 95.9922 148.996C95.8307 148.829 95.6094 148.746 95.3281 148.746C94.7448 148.746 94.2188 149.003 93.75 149.519C93.2865 150.035 92.9453 150.931 92.7266 152.207L92.0625 156.066H90.9062ZM98.2656 153.23L99.4297 153.144C99.4245 153.821 99.5729 154.326 99.875 154.66C100.177 154.993 100.589 155.16 101.109 155.16C101.583 155.16 101.958 155.043 102.234 154.808C102.51 154.569 102.648 154.264 102.648 153.894C102.648 153.628 102.562 153.389 102.391 153.175C102.214 152.962 101.831 152.701 101.242 152.394C100.565 152.04 100.117 151.769 99.8984 151.582C99.6849 151.389 99.5182 151.157 99.3984 150.886C99.2786 150.61 99.2188 150.303 99.2188 149.964C99.2188 149.272 99.4427 148.701 99.8906 148.253C100.339 147.806 100.927 147.582 101.656 147.582C102.464 147.582 103.102 147.813 103.57 148.277C104.039 148.735 104.284 149.378 104.305 150.207L103.164 150.3C103.148 149.78 102.997 149.378 102.711 149.097C102.43 148.816 102.049 148.675 101.57 148.675C101.195 148.675 100.891 148.782 100.656 148.996C100.422 149.204 100.305 149.446 100.305 149.722C100.305 149.962 100.375 150.168 100.516 150.339C100.656 150.516 101.013 150.753 101.586 151.05C102.466 151.514 103.026 151.884 103.266 152.16C103.63 152.592 103.812 153.118 103.812 153.738C103.812 154.425 103.568 155.016 103.078 155.511C102.594 156.006 101.919 156.253 101.055 156.253C100.185 156.253 99.5026 156.003 99.0078 155.503C98.513 155.003 98.2656 154.298 98.2656 153.386V153.23ZM107.477 154.918L107.273 156.074C106.997 156.162 106.729 156.207 106.469 156.207C106.036 156.207 105.693 156.092 105.438 155.863C105.188 155.634 105.062 155.326 105.062 154.941C105.062 154.759 105.12 154.339 105.234 153.683L106.055 148.863H105.141L105.328 147.769H106.242L106.594 145.73L107.922 144.753L107.406 147.769H108.539L108.352 148.863H107.219L106.43 153.449C106.331 154.037 106.281 154.384 106.281 154.488C106.281 154.67 106.323 154.803 106.406 154.886C106.49 154.97 106.617 155.011 106.789 155.011C107.044 155.011 107.273 154.98 107.477 154.918ZM108.422 156.066L109.844 147.769H110.867L110.578 149.464C111.26 148.209 111.945 147.582 112.633 147.582C112.867 147.582 113.154 147.683 113.492 147.886L113.016 149.199C112.812 149.022 112.599 148.933 112.375 148.933C111.948 148.933 111.521 149.214 111.094 149.777C110.672 150.334 110.341 151.321 110.102 152.738L109.523 156.066H108.422ZM117.438 154.566C116.62 155.691 115.784 156.253 114.93 156.253C114.435 156.253 114.018 156.076 113.68 155.722C113.346 155.368 113.18 154.912 113.18 154.355C113.18 154.001 113.253 153.402 113.398 152.558L114.219 147.769H115.375L114.469 153.074C114.391 153.516 114.352 153.858 114.352 154.097C114.352 154.425 114.432 154.675 114.594 154.847C114.755 155.014 114.982 155.097 115.273 155.097C115.685 155.097 116.094 154.933 116.5 154.605C116.911 154.272 117.211 153.858 117.398 153.363C117.591 152.863 117.758 152.194 117.898 151.355L118.516 147.769H119.672L118.25 156.066H117.18L117.438 154.566ZM124.781 153.043L125.945 153.191C125.654 154.227 125.237 154.998 124.695 155.503C124.154 156.003 123.549 156.253 122.883 156.253C122.164 156.253 121.568 155.97 121.094 155.402C120.625 154.834 120.391 154.011 120.391 152.933C120.391 151.876 120.562 150.915 120.906 150.05C121.255 149.186 121.693 148.558 122.219 148.168C122.75 147.777 123.339 147.582 123.984 147.582C124.682 147.582 125.253 147.826 125.695 148.316C126.138 148.806 126.357 149.477 126.352 150.332L125.211 150.425C125.211 149.884 125.083 149.47 124.828 149.183C124.578 148.891 124.268 148.746 123.898 148.746C123.487 148.746 123.115 148.884 122.781 149.16C122.453 149.431 122.167 149.936 121.922 150.675C121.682 151.41 121.562 152.225 121.562 153.121C121.562 153.787 121.693 154.295 121.953 154.644C122.219 154.988 122.534 155.16 122.898 155.16C123.273 155.16 123.633 154.985 123.977 154.636C124.32 154.287 124.589 153.756 124.781 153.043ZM131.344 153.043L132.508 153.191C132.216 154.227 131.799 154.998 131.258 155.503C130.716 156.003 130.112 156.253 129.445 156.253C128.727 156.253 128.13 155.97 127.656 155.402C127.188 154.834 126.953 154.011 126.953 152.933C126.953 151.876 127.125 150.915 127.469 150.05C127.818 149.186 128.255 148.558 128.781 148.168C129.312 147.777 129.901 147.582 130.547 147.582C131.245 147.582 131.815 147.826 132.258 148.316C132.701 148.806 132.919 149.477 132.914 150.332L131.773 150.425C131.773 149.884 131.646 149.47 131.391 149.183C131.141 148.891 130.831 148.746 130.461 148.746C130.049 148.746 129.677 148.884 129.344 149.16C129.016 149.431 128.729 149.936 128.484 150.675C128.245 151.41 128.125 152.225 128.125 153.121C128.125 153.787 128.255 154.295 128.516 154.644C128.781 154.988 129.096 155.16 129.461 155.16C129.836 155.16 130.195 154.985 130.539 154.636C130.883 154.287 131.151 153.756 131.344 153.043ZM134.859 146.214L135.133 144.613H136.289L136.016 146.214H134.859ZM133.172 156.066L134.594 147.769H135.75L134.328 156.066H133.172ZM136.344 152.918C136.344 151.423 136.68 150.16 137.352 149.128C138.023 148.097 138.924 147.582 140.055 147.582C140.846 147.582 141.5 147.886 142.016 148.496C142.531 149.1 142.789 149.962 142.789 151.082C142.789 152.108 142.612 153.024 142.258 153.832C141.909 154.639 141.453 155.246 140.891 155.652C140.333 156.053 139.747 156.253 139.133 156.253C138.326 156.253 137.659 155.957 137.133 155.363C136.607 154.764 136.344 153.949 136.344 152.918ZM137.508 152.777C137.508 153.563 137.664 154.157 137.977 154.558C138.289 154.959 138.68 155.16 139.148 155.16C139.518 155.16 139.888 155.011 140.258 154.714C140.628 154.412 140.951 153.915 141.227 153.222C141.503 152.53 141.641 151.819 141.641 151.089C141.641 150.298 141.484 149.699 141.172 149.293C140.859 148.881 140.474 148.675 140.016 148.675C139.615 148.675 139.224 148.824 138.844 149.121C138.469 149.418 138.151 149.91 137.891 150.597C137.635 151.28 137.508 152.006 137.508 152.777ZM139.133 146.761L140.336 144.613H141.797L140.094 146.761H139.133ZM143.438 156.066L144.859 147.769H145.906L145.664 149.214C146.154 148.6 146.599 148.175 147 147.941C147.401 147.701 147.789 147.582 148.164 147.582C148.69 147.582 149.115 147.759 149.438 148.113C149.766 148.467 149.93 148.97 149.93 149.621C149.93 149.912 149.872 150.386 149.758 151.043L148.898 156.066H147.734L148.641 150.808C148.729 150.293 148.773 149.912 148.773 149.668C148.773 149.381 148.69 149.157 148.523 148.996C148.362 148.829 148.141 148.746 147.859 148.746C147.276 148.746 146.75 149.003 146.281 149.519C145.818 150.035 145.477 150.931 145.258 152.207L144.594 156.066H143.438ZM151.016 156.066L151.289 154.464H152.609L152.375 155.863C152.109 157.41 151.523 158.248 150.617 158.378L150.727 157.761C151.232 157.589 151.568 157.024 151.734 156.066H151.016ZM158.203 156.066L160.164 144.613H166.266L166.047 145.918H161.195L160.57 149.566H165.508L165.289 150.871H160.352L159.461 156.066H158.203ZM170.648 155.035C170.221 155.483 169.82 155.798 169.445 155.98C169.07 156.162 168.69 156.253 168.305 156.253C167.701 156.253 167.198 156.037 166.797 155.605C166.401 155.173 166.203 154.584 166.203 153.839C166.203 153.308 166.318 152.845 166.547 152.449C166.776 152.053 167.096 151.751 167.508 151.543C167.924 151.329 168.518 151.204 169.289 151.168C169.94 151.131 170.385 151.092 170.625 151.05C170.87 151.009 171.078 150.946 171.25 150.863C171.344 150.467 171.391 150.144 171.391 149.894C171.391 149.545 171.263 149.266 171.008 149.058C170.758 148.845 170.393 148.738 169.914 148.738C168.951 148.738 168.326 149.243 168.039 150.253L166.867 150.128C167.362 148.431 168.401 147.582 169.984 147.582C170.766 147.582 171.385 147.787 171.844 148.199C172.302 148.605 172.531 149.118 172.531 149.738C172.531 150.175 172.479 150.688 172.375 151.277L172 153.339C171.88 153.996 171.82 154.527 171.82 154.933C171.82 155.22 171.865 155.597 171.953 156.066H170.789C170.721 155.806 170.674 155.462 170.648 155.035ZM171.078 151.863C170.792 151.998 170.307 152.102 169.625 152.175C168.927 152.248 168.448 152.342 168.188 152.457C167.927 152.571 167.724 152.746 167.578 152.98C167.432 153.214 167.359 153.485 167.359 153.793C167.359 154.214 167.477 154.548 167.711 154.793C167.945 155.037 168.258 155.16 168.648 155.16C169.018 155.16 169.375 155.045 169.719 154.816C170.062 154.587 170.341 154.256 170.555 153.824C170.773 153.391 170.948 152.738 171.078 151.863ZM173.359 156.066L175.32 144.613H176.484L175.781 148.707C176.156 148.285 176.492 147.993 176.789 147.832C177.091 147.665 177.396 147.582 177.703 147.582C178.333 147.582 178.865 147.865 179.297 148.433C179.729 148.996 179.945 149.839 179.945 150.964C179.945 152.001 179.771 152.941 179.422 153.785C179.073 154.623 178.643 155.246 178.133 155.652C177.622 156.053 177.12 156.253 176.625 156.253C175.693 156.253 175.034 155.668 174.648 154.496L174.375 156.066H173.359ZM175.078 152.66L175.07 152.957C175.07 153.66 175.211 154.194 175.492 154.558C175.779 154.918 176.13 155.097 176.547 155.097C176.88 155.097 177.208 154.962 177.531 154.691C177.854 154.415 178.146 153.91 178.406 153.175C178.672 152.436 178.805 151.712 178.805 151.003C178.805 150.248 178.664 149.681 178.383 149.3C178.107 148.915 177.758 148.722 177.336 148.722C176.961 148.722 176.596 148.907 176.242 149.277C175.888 149.647 175.589 150.256 175.344 151.105C175.167 151.73 175.078 152.248 175.078 152.66ZM180.656 156.066L182.078 147.769H183.102L182.812 149.464C183.495 148.209 184.18 147.582 184.867 147.582C185.102 147.582 185.388 147.683 185.727 147.886L185.25 149.199C185.047 149.022 184.833 148.933 184.609 148.933C184.182 148.933 183.755 149.214 183.328 149.777C182.906 150.334 182.576 151.321 182.336 152.738L181.758 156.066H180.656ZM186.672 146.214L186.945 144.613H188.102L187.828 146.214H186.672ZM184.984 156.066L186.406 147.769H187.562L186.141 156.066H184.984ZM192.641 153.043L193.805 153.191C193.513 154.227 193.096 154.998 192.555 155.503C192.013 156.003 191.409 156.253 190.742 156.253C190.023 156.253 189.427 155.97 188.953 155.402C188.484 154.834 188.25 154.011 188.25 152.933C188.25 151.876 188.422 150.915 188.766 150.05C189.115 149.186 189.552 148.558 190.078 148.168C190.609 147.777 191.198 147.582 191.844 147.582C192.542 147.582 193.112 147.826 193.555 148.316C193.997 148.806 194.216 149.477 194.211 150.332L193.07 150.425C193.07 149.884 192.943 149.47 192.688 149.183C192.438 148.891 192.128 148.746 191.758 148.746C191.346 148.746 190.974 148.884 190.641 149.16C190.312 149.431 190.026 149.936 189.781 150.675C189.542 151.41 189.422 152.225 189.422 153.121C189.422 153.787 189.552 154.295 189.812 154.644C190.078 154.988 190.393 155.16 190.758 155.16C191.133 155.16 191.492 154.985 191.836 154.636C192.18 154.287 192.448 153.756 192.641 153.043ZM199.102 155.035C198.674 155.483 198.273 155.798 197.898 155.98C197.523 156.162 197.143 156.253 196.758 156.253C196.154 156.253 195.651 156.037 195.25 155.605C194.854 155.173 194.656 154.584 194.656 153.839C194.656 153.308 194.771 152.845 195 152.449C195.229 152.053 195.549 151.751 195.961 151.543C196.378 151.329 196.971 151.204 197.742 151.168C198.393 151.131 198.839 151.092 199.078 151.05C199.323 151.009 199.531 150.946 199.703 150.863C199.797 150.467 199.844 150.144 199.844 149.894C199.844 149.545 199.716 149.266 199.461 149.058C199.211 148.845 198.846 148.738 198.367 148.738C197.404 148.738 196.779 149.243 196.492 150.253L195.32 150.128C195.815 148.431 196.854 147.582 198.438 147.582C199.219 147.582 199.839 147.787 200.297 148.199C200.755 148.605 200.984 149.118 200.984 149.738C200.984 150.175 200.932 150.688 200.828 151.277L200.453 153.339C200.333 153.996 200.273 154.527 200.273 154.933C200.273 155.22 200.318 155.597 200.406 156.066H199.242C199.174 155.806 199.128 155.462 199.102 155.035ZM199.531 151.863C199.245 151.998 198.76 152.102 198.078 152.175C197.38 152.248 196.901 152.342 196.641 152.457C196.38 152.571 196.177 152.746 196.031 152.98C195.885 153.214 195.812 153.485 195.812 153.793C195.812 154.214 195.93 154.548 196.164 154.793C196.398 155.037 196.711 155.16 197.102 155.16C197.471 155.16 197.828 155.045 198.172 154.816C198.516 154.587 198.794 154.256 199.008 153.824C199.227 153.391 199.401 152.738 199.531 151.863ZM206.5 153.043L207.664 153.191C207.372 154.227 206.956 154.998 206.414 155.503C205.872 156.003 205.268 156.253 204.602 156.253C203.883 156.253 203.286 155.97 202.812 155.402C202.344 154.834 202.109 154.011 202.109 152.933C202.109 151.876 202.281 150.915 202.625 150.05C202.974 149.186 203.411 148.558 203.938 148.168C204.469 147.777 205.057 147.582 205.703 147.582C206.401 147.582 206.971 147.826 207.414 148.316C207.857 148.806 208.076 149.477 208.07 150.332L206.93 150.425C206.93 149.884 206.802 149.47 206.547 149.183C206.297 148.891 205.987 148.746 205.617 148.746C205.206 148.746 204.833 148.884 204.5 149.16C204.172 149.431 203.885 149.936 203.641 150.675C203.401 151.41 203.281 152.225 203.281 153.121C203.281 153.787 203.411 154.295 203.672 154.644C203.938 154.988 204.253 155.16 204.617 155.16C204.992 155.16 205.352 154.985 205.695 154.636C206.039 154.287 206.307 153.756 206.5 153.043ZM210.016 146.214L210.289 144.613H211.445L211.172 146.214H210.016ZM208.328 156.066L209.75 147.769H210.906L209.484 156.066H208.328ZM211.5 152.918C211.5 151.423 211.836 150.16 212.508 149.128C213.18 148.097 214.081 147.582 215.211 147.582C216.003 147.582 216.656 147.886 217.172 148.496C217.688 149.1 217.945 149.962 217.945 151.082C217.945 152.108 217.768 153.024 217.414 153.832C217.065 154.639 216.609 155.246 216.047 155.652C215.49 156.053 214.904 156.253 214.289 156.253C213.482 156.253 212.815 155.957 212.289 155.363C211.763 154.764 211.5 153.949 211.5 152.918ZM212.664 152.777C212.664 153.563 212.82 154.157 213.133 154.558C213.445 154.959 213.836 155.16 214.305 155.16C214.674 155.16 215.044 155.011 215.414 154.714C215.784 154.412 216.107 153.915 216.383 153.222C216.659 152.53 216.797 151.819 216.797 151.089C216.797 150.298 216.641 149.699 216.328 149.293C216.016 148.881 215.63 148.675 215.172 148.675C214.771 148.675 214.38 148.824 214 149.121C213.625 149.418 213.307 149.91 213.047 150.597C212.792 151.28 212.664 152.006 212.664 152.777ZM214.289 146.761L215.492 144.613H216.953L215.25 146.761H214.289ZM218.594 156.066L220.016 147.769H221.062L220.82 149.214C221.31 148.6 221.755 148.175 222.156 147.941C222.557 147.701 222.945 147.582 223.32 147.582C223.846 147.582 224.271 147.759 224.594 148.113C224.922 148.467 225.086 148.97 225.086 149.621C225.086 149.912 225.029 150.386 224.914 151.043L224.055 156.066H222.891L223.797 150.808C223.885 150.293 223.93 149.912 223.93 149.668C223.93 149.381 223.846 149.157 223.68 148.996C223.518 148.829 223.297 148.746 223.016 148.746C222.432 148.746 221.906 149.003 221.438 149.519C220.974 150.035 220.633 150.931 220.414 152.207L219.75 156.066H218.594ZM229.109 159.269L229.18 157.941C229.419 158.024 229.651 158.066 229.875 158.066C230.109 158.066 230.297 158.003 230.438 157.878C230.635 157.701 230.844 157.376 231.062 156.902L231.43 156.089L230.297 147.769H231.438L231.953 151.964C232.057 152.803 232.146 153.631 232.219 154.449L235.258 147.769H236.469L232.133 157.168C231.701 158.115 231.318 158.73 230.984 159.011C230.656 159.293 230.294 159.433 229.898 159.433C229.628 159.433 229.365 159.378 229.109 159.269ZM239.906 156.066L241.867 144.613H243.406L244.359 152.035C244.484 153.019 244.565 153.954 244.602 154.839C244.867 154.063 245.302 153.019 245.906 151.707L249.203 144.613H250.773L248.812 156.066H247.578L248.555 150.496C248.784 149.204 249.109 147.761 249.531 146.168C249.26 146.912 248.924 147.714 248.523 148.574L245.031 156.066H243.82L242.875 148.722C242.792 148.076 242.729 147.293 242.688 146.371C242.589 147.345 242.487 148.141 242.383 148.761L241.125 156.066H239.906ZM255.289 155.035C254.862 155.483 254.461 155.798 254.086 155.98C253.711 156.162 253.331 156.253 252.945 156.253C252.341 156.253 251.839 156.037 251.438 155.605C251.042 155.173 250.844 154.584 250.844 153.839C250.844 153.308 250.958 152.845 251.188 152.449C251.417 152.053 251.737 151.751 252.148 151.543C252.565 151.329 253.159 151.204 253.93 151.168C254.581 151.131 255.026 151.092 255.266 151.05C255.51 151.009 255.719 150.946 255.891 150.863C255.984 150.467 256.031 150.144 256.031 149.894C256.031 149.545 255.904 149.266 255.648 149.058C255.398 148.845 255.034 148.738 254.555 148.738C253.591 148.738 252.966 149.243 252.68 150.253L251.508 150.128C252.003 148.431 253.042 147.582 254.625 147.582C255.406 147.582 256.026 147.787 256.484 148.199C256.943 148.605 257.172 149.118 257.172 149.738C257.172 150.175 257.12 150.688 257.016 151.277L256.641 153.339C256.521 153.996 256.461 154.527 256.461 154.933C256.461 155.22 256.505 155.597 256.594 156.066H255.43C255.362 155.806 255.315 155.462 255.289 155.035ZM255.719 151.863C255.432 151.998 254.948 152.102 254.266 152.175C253.568 152.248 253.089 152.342 252.828 152.457C252.568 152.571 252.365 152.746 252.219 152.98C252.073 153.214 252 153.485 252 153.793C252 154.214 252.117 154.548 252.352 154.793C252.586 155.037 252.898 155.16 253.289 155.16C253.659 155.16 254.016 155.045 254.359 154.816C254.703 154.587 254.982 154.256 255.195 153.824C255.414 153.391 255.589 152.738 255.719 151.863ZM258 156.066L259.422 147.769H260.469L260.227 149.214C260.716 148.6 261.161 148.175 261.562 147.941C261.964 147.701 262.352 147.582 262.727 147.582C263.253 147.582 263.677 147.759 264 148.113C264.328 148.467 264.492 148.97 264.492 149.621C264.492 149.912 264.435 150.386 264.32 151.043L263.461 156.066H262.297L263.203 150.808C263.292 150.293 263.336 149.912 263.336 149.668C263.336 149.381 263.253 149.157 263.086 148.996C262.924 148.829 262.703 148.746 262.422 148.746C261.839 148.746 261.312 149.003 260.844 149.519C260.38 150.035 260.039 150.931 259.82 152.207L259.156 156.066H258ZM268.008 154.918L267.805 156.074C267.529 156.162 267.26 156.207 267 156.207C266.568 156.207 266.224 156.092 265.969 155.863C265.719 155.634 265.594 155.326 265.594 154.941C265.594 154.759 265.651 154.339 265.766 153.683L266.586 148.863H265.672L265.859 147.769H266.773L267.125 145.73L268.453 144.753L267.938 147.769H269.07L268.883 148.863H267.75L266.961 153.449C266.862 154.037 266.812 154.384 266.812 154.488C266.812 154.67 266.854 154.803 266.938 154.886C267.021 154.97 267.148 155.011 267.32 155.011C267.576 155.011 267.805 154.98 268.008 154.918ZM273.945 153.246L275.078 153.386C274.891 154.194 274.456 154.897 273.773 155.496C273.206 156.001 272.573 156.253 271.875 156.253C271.38 156.253 270.93 156.121 270.523 155.855C270.117 155.584 269.794 155.183 269.555 154.652C269.315 154.115 269.195 153.477 269.195 152.738C269.195 151.764 269.378 150.855 269.742 150.011C270.112 149.168 270.562 148.553 271.094 148.168C271.625 147.777 272.201 147.582 272.82 147.582C273.607 147.582 274.247 147.881 274.742 148.48C275.242 149.079 275.492 149.925 275.492 151.019C275.492 151.425 275.464 151.842 275.406 152.269H270.391C270.375 152.436 270.367 152.584 270.367 152.714C270.367 153.496 270.516 154.089 270.812 154.496C271.109 154.897 271.466 155.097 271.883 155.097C272.279 155.097 272.667 154.938 273.047 154.621C273.432 154.303 273.732 153.845 273.945 153.246ZM270.578 151.191H274.398V150.902C274.398 150.162 274.253 149.608 273.961 149.238C273.669 148.868 273.297 148.683 272.844 148.683C272.354 148.683 271.904 148.891 271.492 149.308C271.086 149.725 270.781 150.352 270.578 151.191ZM276.25 156.066L277.672 147.769H278.719L278.477 149.214C278.966 148.6 279.411 148.175 279.812 147.941C280.214 147.701 280.602 147.582 280.977 147.582C281.503 147.582 281.927 147.759 282.25 148.113C282.578 148.467 282.742 148.97 282.742 149.621C282.742 149.912 282.685 150.386 282.57 151.043L281.711 156.066H280.547L281.453 150.808C281.542 150.293 281.586 149.912 281.586 149.668C281.586 149.381 281.503 149.157 281.336 148.996C281.174 148.829 280.953 148.746 280.672 148.746C280.089 148.746 279.562 149.003 279.094 149.519C278.63 150.035 278.289 150.931 278.07 152.207L277.406 156.066H276.25ZM285.188 146.214L285.461 144.613H286.617L286.344 146.214H285.188ZM283.5 156.066L284.922 147.769H286.078L284.656 156.066H283.5ZM286.453 156.066L287.875 147.769H289.031L288.797 149.136C289.245 148.522 289.638 148.11 289.977 147.902C290.315 147.688 290.674 147.582 291.055 147.582C291.471 147.582 291.823 147.714 292.109 147.98C292.396 148.246 292.586 148.631 292.68 149.136C293.023 148.615 293.388 148.227 293.773 147.972C294.159 147.712 294.562 147.582 294.984 147.582C295.521 147.582 295.938 147.74 296.234 148.058C296.536 148.376 296.688 148.837 296.688 149.441C296.688 149.707 296.635 150.134 296.531 150.722L295.617 156.066H294.461L295.398 150.582C295.477 150.134 295.516 149.811 295.516 149.613C295.516 149.332 295.443 149.118 295.297 148.972C295.151 148.821 294.956 148.746 294.711 148.746C294.388 148.746 294.049 148.865 293.695 149.105C293.341 149.339 293.057 149.665 292.844 150.082C292.635 150.493 292.453 151.147 292.297 152.043L291.609 156.066H290.445L291.406 150.464C291.474 150.084 291.508 149.811 291.508 149.644C291.508 149.368 291.435 149.149 291.289 148.988C291.148 148.826 290.971 148.746 290.758 148.746C290.242 148.746 289.753 149.009 289.289 149.535C288.831 150.056 288.497 150.925 288.289 152.144L287.609 156.066H286.453ZM299.047 146.214L299.32 144.613H300.477L300.203 146.214H299.047ZM297.359 156.066L298.781 147.769H299.938L298.516 156.066H297.359ZM305.32 153.246L306.453 153.386C306.266 154.194 305.831 154.897 305.148 155.496C304.581 156.001 303.948 156.253 303.25 156.253C302.755 156.253 302.305 156.121 301.898 155.855C301.492 155.584 301.169 155.183 300.93 154.652C300.69 154.115 300.57 153.477 300.57 152.738C300.57 151.764 300.753 150.855 301.117 150.011C301.487 149.168 301.938 148.553 302.469 148.168C303 147.777 303.576 147.582 304.195 147.582C304.982 147.582 305.622 147.881 306.117 148.48C306.617 149.079 306.867 149.925 306.867 151.019C306.867 151.425 306.839 151.842 306.781 152.269H301.766C301.75 152.436 301.742 152.584 301.742 152.714C301.742 153.496 301.891 154.089 302.188 154.496C302.484 154.897 302.841 155.097 303.258 155.097C303.654 155.097 304.042 154.938 304.422 154.621C304.807 154.303 305.107 153.845 305.32 153.246ZM301.953 151.191H305.773V150.902C305.773 150.162 305.628 149.608 305.336 149.238C305.044 148.868 304.672 148.683 304.219 148.683C303.729 148.683 303.279 148.891 302.867 149.308C302.461 149.725 302.156 150.352 301.953 151.191ZM307.625 156.066L309.047 147.769H310.094L309.852 149.214C310.341 148.6 310.786 148.175 311.188 147.941C311.589 147.701 311.977 147.582 312.352 147.582C312.878 147.582 313.302 147.759 313.625 148.113C313.953 148.467 314.117 148.97 314.117 149.621C314.117 149.912 314.06 150.386 313.945 151.043L313.086 156.066H311.922L312.828 150.808C312.917 150.293 312.961 149.912 312.961 149.668C312.961 149.381 312.878 149.157 312.711 148.996C312.549 148.829 312.328 148.746 312.047 148.746C311.464 148.746 310.938 149.003 310.469 149.519C310.005 150.035 309.664 150.931 309.445 152.207L308.781 156.066H307.625ZM317.633 154.918L317.43 156.074C317.154 156.162 316.885 156.207 316.625 156.207C316.193 156.207 315.849 156.092 315.594 155.863C315.344 155.634 315.219 155.326 315.219 154.941C315.219 154.759 315.276 154.339 315.391 153.683L316.211 148.863H315.297L315.484 147.769H316.398L316.75 145.73L318.078 144.753L317.562 147.769H318.695L318.508 148.863H317.375L316.586 153.449C316.487 154.037 316.438 154.384 316.438 154.488C316.438 154.67 316.479 154.803 316.562 154.886C316.646 154.97 316.773 155.011 316.945 155.011C317.201 155.011 317.43 154.98 317.633 154.918ZM318.781 152.918C318.781 151.423 319.117 150.16 319.789 149.128C320.461 148.097 321.362 147.582 322.492 147.582C323.284 147.582 323.938 147.886 324.453 148.496C324.969 149.1 325.227 149.962 325.227 151.082C325.227 152.108 325.049 153.024 324.695 153.832C324.346 154.639 323.891 155.246 323.328 155.652C322.771 156.053 322.185 156.253 321.57 156.253C320.763 156.253 320.096 155.957 319.57 155.363C319.044 154.764 318.781 153.949 318.781 152.918ZM319.945 152.777C319.945 153.563 320.102 154.157 320.414 154.558C320.727 154.959 321.117 155.16 321.586 155.16C321.956 155.16 322.326 155.011 322.695 154.714C323.065 154.412 323.388 153.915 323.664 153.222C323.94 152.53 324.078 151.819 324.078 151.089C324.078 150.298 323.922 149.699 323.609 149.293C323.297 148.881 322.911 148.675 322.453 148.675C322.052 148.675 321.661 148.824 321.281 149.121C320.906 149.418 320.589 149.91 320.328 150.597C320.073 151.28 319.945 152.006 319.945 152.777Z" fill="white"/>
</svg>
