<svg width="727" height="405" viewBox="0 0 727 405" fill="none" xmlns="http://www.w3.org/2000/svg">
<path d="M25.8633 51.021V99.021H37.3633V60.521L202.863 15.521L309.863 44.521L332.363 39.521L202.863 0.521027L25.8633 51.021Z" fill="#F97809"/>
<path d="M27.8633 192.521L25.8633 110.521H37.3633V185.021L27.8633 192.521Z" fill="#F97809"/>
<path d="M62.3633 169.521L50.3633 179.021L49.3633 69.521L202.863 26.521L280.363 49.021L263.363 55.521L202.863 39.521L62.3633 79.521V169.521Z" fill="#F97809"/>
<path d="M193.863 104.021C78.8633 160.021 0.363281 243.021 0.363281 243.021C0.363281 243.021 76.6467 194.744 127.363 167.021C176.939 139.922 256.863 102.521 256.863 102.521C256.863 102.521 196.863 169.521 157.863 215.021C121.541 257.397 70.3633 327.521 70.3633 327.521C70.3633 327.521 148.776 248.399 202.863 198.021C256.951 147.643 347.363 69.521 347.363 69.521C347.363 69.521 273.677 143.331 226.863 191.021C179.949 238.814 107.363 314.021 107.363 314.021L414.363 39.521C414.363 39.521 300.363 44.521 193.863 104.021Z" fill="#F97809"/>
<path d="M77.3633 292.521L68.8633 300.521C68.8633 300.521 55.083 283.209 48.3633 270.021C42.6443 258.797 35.3633 239.521 35.3633 239.521L45.3633 233.021C53.8261 256.894 61.5557 270.323 77.3633 292.521Z" fill="#F97809"/>
<path d="M93.3633 272.021L83.8633 281.521C83.8633 281.521 75.583 270.709 68.8633 257.521C63.1443 246.297 55.8633 227.021 55.8633 227.021L66.3633 220.021C75.3633 244.021 78.8633 249.521 93.3633 272.021Z" fill="#F97809"/>
<path d="M202.863 376.021C202.863 376.021 268.561 345.78 298.863 313.021C328.318 281.178 344.863 261.521 352.863 216.021C359.359 179.079 355.863 114.521 355.863 114.521L342.863 123.521C342.863 123.521 348.866 185.084 336.863 221.521C323.745 261.343 308.863 275.521 285.863 306.521C259.863 329.021 202.863 361.521 202.863 361.521L163.363 339.021L128.363 314.021L118.863 322.021C118.863 322.021 141.461 340.977 157.863 351.521C174.265 362.065 202.863 376.021 202.863 376.021Z" fill="#F97809"/>
<path d="M377.863 142.521V93.521L367.363 102.521V142.521H377.863Z" fill="#F97809"/>
<path d="M145.863 355.521L202.863 388.521C202.863 388.521 293.651 344.541 327.863 292.021C365.632 247.521 366.363 154.521 366.363 154.521H378.863C378.863 154.521 383.363 252.021 333.863 303.521C302.363 351.521 202.863 403.521 202.863 403.521L139.363 365.521L145.863 355.521Z" fill="#F97809"/>
<path d="M91.3633 327.521L99.3633 319.521L136.863 351.521L130.363 359.021L91.3633 327.521Z" fill="#F97809"/>
<path d="M25.8633 51.021V99.021H37.3633V60.521L202.863 15.521L309.863 44.521L332.363 39.521L202.863 0.521027L25.8633 51.021Z" stroke="black"/>
<path d="M27.8633 192.521L25.8633 110.521H37.3633V185.021L27.8633 192.521Z" stroke="black"/>
<path d="M62.3633 169.521L50.3633 179.021L49.3633 69.521L202.863 26.521L280.363 49.021L263.363 55.521L202.863 39.521L62.3633 79.521V169.521Z" stroke="black"/>
<path d="M193.863 104.021C78.8633 160.021 0.363281 243.021 0.363281 243.021C0.363281 243.021 76.6467 194.744 127.363 167.021C176.939 139.922 256.863 102.521 256.863 102.521C256.863 102.521 196.863 169.521 157.863 215.021C121.541 257.397 70.3633 327.521 70.3633 327.521C70.3633 327.521 148.776 248.399 202.863 198.021C256.951 147.643 347.363 69.521 347.363 69.521C347.363 69.521 273.677 143.331 226.863 191.021C179.949 238.814 107.363 314.021 107.363 314.021L414.363 39.521C414.363 39.521 300.363 44.521 193.863 104.021Z" stroke="black"/>
<path d="M77.3633 292.521L68.8633 300.521C68.8633 300.521 55.083 283.209 48.3633 270.021C42.6443 258.797 35.3633 239.521 35.3633 239.521L45.3633 233.021C53.8261 256.894 61.5557 270.323 77.3633 292.521Z" stroke="black"/>
<path d="M93.3633 272.021L83.8633 281.521C83.8633 281.521 75.583 270.709 68.8633 257.521C63.1443 246.297 55.8633 227.021 55.8633 227.021L66.3633 220.021C75.3633 244.021 78.8633 249.521 93.3633 272.021Z" stroke="black"/>
<path d="M202.863 376.021C202.863 376.021 268.561 345.78 298.863 313.021C328.318 281.178 344.863 261.521 352.863 216.021C359.359 179.079 355.863 114.521 355.863 114.521L342.863 123.521C342.863 123.521 348.866 185.084 336.863 221.521C323.745 261.343 308.863 275.521 285.863 306.521C259.863 329.021 202.863 361.521 202.863 361.521L163.363 339.021L128.363 314.021L118.863 322.021C118.863 322.021 141.461 340.977 157.863 351.521C174.265 362.065 202.863 376.021 202.863 376.021Z" stroke="black"/>
<path d="M377.863 142.521V93.521L367.363 102.521V142.521H377.863Z" stroke="black"/>
<path d="M145.863 355.521L202.863 388.521C202.863 388.521 293.651 344.541 327.863 292.021C365.632 247.521 366.363 154.521 366.363 154.521H378.863C378.863 154.521 383.363 252.021 333.863 303.521C302.363 351.521 202.863 403.521 202.863 403.521L139.363 365.521L145.863 355.521Z" stroke="black"/>
<path d="M91.3633 327.521L99.3633 319.521L136.863 351.521L130.363 359.021L91.3633 327.521Z" stroke="black"/>
<path d="M449.638 207.853V259.521H436.442V145.001H449.638V187.051H450.757C452.77 182.615 455.789 179.092 459.815 176.483C463.879 173.836 469.284 172.512 476.032 172.512C481.884 172.512 487.01 173.687 491.409 176.035C495.808 178.346 499.219 181.907 501.642 186.716C504.103 191.487 505.333 197.564 505.333 204.945V259.521H492.136V205.84C492.136 199.018 490.365 193.743 486.824 190.015C483.32 186.25 478.455 184.367 472.229 184.367C467.905 184.367 464.028 185.28 460.598 187.107C457.206 188.934 454.522 191.599 452.546 195.103C450.608 198.607 449.638 202.857 449.638 207.853ZM529.476 259.521V173.631H542.225V187.051H543.343C545.133 182.466 548.022 178.906 552.011 176.371C555.999 173.798 560.79 172.512 566.382 172.512C572.048 172.512 576.764 173.798 580.529 176.371C584.331 178.906 587.295 182.466 589.42 187.051H590.315C592.514 182.615 595.813 179.092 600.212 176.483C604.611 173.836 609.886 172.512 616.037 172.512C623.716 172.512 629.998 174.917 634.881 179.726C639.765 184.497 642.207 191.935 642.207 202.037V259.521H629.01V202.037C629.01 195.7 627.276 191.17 623.81 188.449C620.343 185.728 616.261 184.367 611.563 184.367C605.524 184.367 600.846 186.194 597.528 189.847C594.21 193.463 592.551 198.048 592.551 203.603V259.521H579.131V200.695C579.131 195.812 577.547 191.879 574.378 188.896C571.209 185.877 567.127 184.367 562.132 184.367C558.702 184.367 555.496 185.28 552.514 187.107C549.569 188.934 547.183 191.469 545.356 194.712C543.567 197.918 542.672 201.627 542.672 205.84V259.521H529.476ZM725.609 259.521V271.823H654.033V259.521H725.609Z" fill="#F97809"/>
</svg>
