<svg width="221" height="82" viewBox="0 0 221 82" fill="none" xmlns="http://www.w3.org/2000/svg">
<path d="M49.5801 9.77112C53.6187 9.77112 57.6184 10.5664 61.3496 12.1119C65.0805 13.6574 68.4706 15.9225 71.3262 18.778L27.834 62.2701C24.9785 59.4146 22.7134 56.0245 21.168 52.2936C19.6225 48.5624 18.8271 44.5627 18.8271 40.524C18.8272 36.4856 19.6225 32.4866 21.168 28.7555C22.7135 25.0243 24.9783 21.6337 27.834 18.778C30.6897 15.9222 34.0804 13.6574 37.8115 12.1119C41.5426 10.5665 45.5416 9.77115 49.5801 9.77112Z" fill="#FFD000"/>
<path d="M27.8344 62.2705C30.6901 65.1263 34.0804 67.3915 37.8116 68.937C41.5427 70.4826 45.5418 71.278 49.5804 71.278C53.619 71.278 57.6181 70.4826 61.3492 68.937C65.0804 67.3915 68.4707 65.1263 71.3264 62.2705C74.1821 59.4148 76.4474 56.0246 77.9929 52.2934C79.5384 48.5622 80.3339 44.5631 80.3339 40.5245C80.3339 36.4859 79.5384 32.4869 77.9929 28.7557C76.4474 25.0245 74.1821 21.6343 71.3264 18.7785L49.5804 40.5245L27.8344 62.2705Z" fill="white"/>
<path d="M46.5456 37.7516C46.2767 38.0877 38.4791 37.8917 34.6139 37.7516L34.1098 45.0619H43.6887L41.7561 49.9354H26.1273C26.0713 51.868 25.9929 56.1701 26.1273 57.9178C26.2954 60.1025 39.4874 59.0102 44.529 58.6741C48.5622 58.4052 52.3154 48.9271 53.6878 44.2216C57.0769 44.1936 63.939 44.1544 64.2751 44.2216C64.6112 44.2888 65.2554 39.3201 65.5355 36.8273H57.8051L59.8217 30.6934C62.2305 30.8895 67.821 31.3152 70.9131 31.4497C74.0053 31.5841 73.0418 25.1197 72.1735 21.8707C67.9162 21.9828 58.3765 22.2572 54.276 22.4589C49.1504 22.711 46.8817 37.3315 46.5456 37.7516Z" fill="black"/>
<path d="M99.0066 29.8916V18.4372H106.702V20.3893H101.233V23.3416H105.782V25.1485H101.233V29.8916H99.0066ZM110.565 18.4372H112.823L117.034 29.8916H114.743L113.679 27.0361H109.678L108.629 29.8916H106.338L110.565 18.4372ZM113.275 25.4712L111.694 20.7442L110.049 25.4712H113.275ZM122.609 29.9723C121.866 29.9723 121.162 29.8217 120.495 29.5205C119.839 29.2194 119.258 28.8053 118.753 28.2783C118.258 27.7405 117.871 27.1167 117.591 26.4069C117.312 25.697 117.172 24.928 117.172 24.0999C117.172 23.3147 117.312 22.578 117.591 21.8896C117.871 21.1906 118.263 20.5775 118.769 20.0505C119.274 19.5235 119.866 19.1094 120.544 18.8083C121.221 18.5071 121.958 18.3565 122.754 18.3565C123.829 18.3565 124.749 18.5878 125.513 19.0502C126.287 19.502 126.868 20.1043 127.255 20.8571L125.593 22.0832C125.303 21.5132 124.894 21.0776 124.367 20.7765C123.851 20.4753 123.286 20.3247 122.673 20.3247C122.189 20.3247 121.748 20.4269 121.35 20.6313C120.952 20.8356 120.608 21.1153 120.318 21.4702C120.027 21.8251 119.801 22.2338 119.64 22.6963C119.49 23.1588 119.414 23.6481 119.414 24.1644C119.414 24.7129 119.495 25.2184 119.656 25.6809C119.828 26.1434 120.065 26.5467 120.366 26.8909C120.678 27.235 121.038 27.5093 121.447 27.7137C121.856 27.9072 122.307 28.004 122.802 28.004C123.383 28.004 123.937 27.8535 124.464 27.5523C125.002 27.2512 125.502 26.8102 125.964 26.2294V28.4235C125.007 29.456 123.888 29.9723 122.609 29.9723ZM125.803 25.6325H123.496V24.0031H127.642V29.8916H125.803V25.6325Z" fill="white"/>
<path d="M136.364 21.4379C136.288 21.3626 136.149 21.2605 135.944 21.1314C135.751 21.0023 135.509 20.8786 135.218 20.7603C134.939 20.642 134.632 20.5399 134.299 20.4538C133.965 20.357 133.627 20.3086 133.282 20.3086C132.68 20.3086 132.223 20.4215 131.911 20.6474C131.61 20.8733 131.459 21.1906 131.459 21.5993C131.459 21.9112 131.556 22.1585 131.75 22.3414C131.943 22.5242 132.234 22.6802 132.621 22.8092C133.008 22.9383 133.492 23.0781 134.073 23.2287C134.826 23.4115 135.476 23.6374 136.025 23.9063C136.584 24.1644 137.009 24.5086 137.299 24.9388C137.601 25.3582 137.751 25.9175 137.751 26.6166C137.751 27.2297 137.638 27.7567 137.412 28.1976C137.187 28.6279 136.875 28.9774 136.477 29.2463C136.079 29.5152 135.627 29.7141 135.121 29.8432C134.616 29.9615 134.078 30.0207 133.508 30.0207C132.938 30.0207 132.368 29.9615 131.798 29.8432C131.228 29.7249 130.68 29.5582 130.153 29.3431C129.626 29.1172 129.142 28.8483 128.701 28.5364L129.685 26.6166C129.781 26.7134 129.954 26.8425 130.201 27.0038C130.448 27.1544 130.749 27.3103 131.104 27.4717C131.459 27.6222 131.847 27.7513 132.266 27.8588C132.685 27.9664 133.11 28.0202 133.54 28.0202C134.143 28.0202 134.6 27.918 134.912 27.7137C135.224 27.5093 135.38 27.2189 135.38 26.8425C135.38 26.4983 135.256 26.2294 135.009 26.0358C134.761 25.8422 134.417 25.6755 133.976 25.5357C133.535 25.3851 133.013 25.2238 132.411 25.0517C131.691 24.8474 131.088 24.6215 130.604 24.3741C130.12 24.116 129.76 23.7933 129.523 23.4061C129.287 23.019 129.168 22.535 129.168 21.9542C129.168 21.169 129.351 20.513 129.717 19.986C130.093 19.4482 130.599 19.0449 131.233 18.776C131.868 18.4963 132.572 18.3565 133.347 18.3565C133.885 18.3565 134.39 18.4157 134.863 18.534C135.347 18.6523 135.799 18.8083 136.219 19.0018C136.638 19.1954 137.014 19.4052 137.348 19.631L136.364 21.4379ZM144.322 29.9723C143.483 29.9723 142.719 29.8109 142.031 29.4883C141.353 29.1656 140.767 28.73 140.272 28.1815C139.788 27.6222 139.412 26.9984 139.143 26.3101C138.874 25.611 138.74 24.8958 138.74 24.1644C138.74 23.4008 138.88 22.6748 139.159 21.9864C139.45 21.2874 139.842 20.6689 140.337 20.1312C140.842 19.5826 141.434 19.1524 142.112 18.8405C142.8 18.5179 143.553 18.3565 144.37 18.3565C145.198 18.3565 145.951 18.5232 146.629 18.8566C147.317 19.1901 147.903 19.6364 148.387 20.1957C148.871 20.755 149.248 21.3788 149.517 22.0671C149.786 22.7555 149.92 23.4653 149.92 24.1967C149.92 24.9495 149.78 25.6755 149.501 26.3746C149.221 27.063 148.828 27.6814 148.323 28.2299C147.828 28.7677 147.237 29.1925 146.548 29.5044C145.871 29.8163 145.128 29.9723 144.322 29.9723ZM140.998 24.1644C140.998 24.6591 141.074 25.1378 141.224 25.6002C141.375 26.0627 141.59 26.4768 141.87 26.8425C142.16 27.1974 142.51 27.4824 142.918 27.6975C143.338 27.9019 143.811 28.004 144.338 28.004C144.876 28.004 145.354 27.8965 145.774 27.6814C146.193 27.4555 146.543 27.1598 146.822 26.7941C147.102 26.4176 147.312 26.0036 147.452 25.5518C147.602 25.0894 147.677 24.6269 147.677 24.1644C147.677 23.6697 147.597 23.1964 147.435 22.7447C147.285 22.2822 147.064 21.8735 146.774 21.5186C146.494 21.1529 146.145 20.8679 145.725 20.6635C145.317 20.4484 144.854 20.3409 144.338 20.3409C143.789 20.3409 143.305 20.4538 142.886 20.6797C142.477 20.8948 142.133 21.1852 141.853 21.5509C141.574 21.9165 141.359 22.3252 141.208 22.777C141.068 23.2287 140.998 23.6912 140.998 24.1644ZM151.628 29.8916V18.4372H153.854V27.9395H159.694V29.8916H151.628ZM171.261 21.4379C171.185 21.3626 171.046 21.2605 170.841 21.1314C170.648 21.0023 170.406 20.8786 170.115 20.7603C169.836 20.642 169.529 20.5399 169.196 20.4538C168.862 20.357 168.524 20.3086 168.179 20.3086C167.577 20.3086 167.12 20.4215 166.808 20.6474C166.507 20.8733 166.356 21.1906 166.356 21.5993C166.356 21.9112 166.453 22.1585 166.647 22.3414C166.84 22.5242 167.131 22.6802 167.518 22.8092C167.905 22.9383 168.389 23.0781 168.97 23.2287C169.723 23.4115 170.373 23.6374 170.922 23.9063C171.481 24.1644 171.906 24.5086 172.196 24.9388C172.498 25.3582 172.648 25.9175 172.648 26.6166C172.648 27.2297 172.535 27.7567 172.309 28.1976C172.084 28.6279 171.772 28.9774 171.374 29.2463C170.976 29.5152 170.524 29.7141 170.019 29.8432C169.513 29.9615 168.975 30.0207 168.405 30.0207C167.835 30.0207 167.265 29.9615 166.695 29.8432C166.125 29.7249 165.577 29.5582 165.05 29.3431C164.523 29.1172 164.039 28.8483 163.598 28.5364L164.582 26.6166C164.678 26.7134 164.851 26.8425 165.098 27.0038C165.345 27.1544 165.646 27.3103 166.001 27.4717C166.356 27.6222 166.744 27.7513 167.163 27.8588C167.582 27.9664 168.007 28.0202 168.437 28.0202C169.04 28.0202 169.497 27.918 169.809 27.7137C170.121 27.5093 170.277 27.2189 170.277 26.8425C170.277 26.4983 170.153 26.2294 169.906 26.0358C169.658 25.8422 169.314 25.6755 168.873 25.5357C168.432 25.3851 167.91 25.2238 167.308 25.0517C166.588 24.8474 165.985 24.6215 165.501 24.3741C165.017 24.116 164.657 23.7933 164.42 23.4061C164.184 23.019 164.065 22.535 164.065 21.9542C164.065 21.169 164.248 20.513 164.614 19.986C164.99 19.4482 165.496 19.0449 166.13 18.776C166.765 18.4963 167.469 18.3565 168.244 18.3565C168.782 18.3565 169.287 18.4157 169.76 18.534C170.244 18.6523 170.696 18.8083 171.116 19.0018C171.535 19.1954 171.911 19.4052 172.245 19.631L171.261 21.4379ZM177.192 18.4372H179.451L183.661 29.8916H181.371L180.306 27.0361H176.305L175.256 29.8916H172.965L177.192 18.4372ZM179.902 25.4712L178.321 20.7442L176.676 25.4712H179.902ZM183.783 24.0837C183.783 23.3846 183.907 22.7017 184.154 22.0348C184.412 21.3573 184.783 20.7442 185.267 20.1957C185.751 19.6364 186.343 19.1954 187.042 18.8728C187.741 18.5394 188.537 18.3727 189.429 18.3727C190.484 18.3727 191.392 18.6039 192.156 19.0664C192.93 19.5289 193.506 20.1312 193.882 20.8733L192.172 22.051C191.979 21.6208 191.726 21.282 191.414 21.0346C191.102 20.7765 190.769 20.599 190.414 20.5022C190.059 20.3947 189.709 20.3409 189.365 20.3409C188.806 20.3409 188.316 20.4538 187.897 20.6797C187.488 20.9055 187.144 21.2013 186.864 21.567C186.585 21.9327 186.375 22.3414 186.235 22.7931C186.106 23.2448 186.042 23.6965 186.042 24.1483C186.042 24.6538 186.122 25.1431 186.284 25.6164C186.445 26.0788 186.671 26.4929 186.961 26.8586C187.262 27.2135 187.617 27.4985 188.026 27.7137C188.445 27.918 188.902 28.0202 189.397 28.0202C189.752 28.0202 190.112 27.961 190.478 27.8427C190.844 27.7244 191.183 27.5362 191.495 27.2781C191.806 27.0199 192.048 26.6865 192.22 26.2778L194.044 27.3265C193.818 27.8965 193.447 28.3805 192.93 28.7784C192.425 29.1764 191.855 29.4775 191.22 29.6819C190.586 29.8862 189.957 29.9884 189.333 29.9884C188.515 29.9884 187.768 29.8217 187.09 29.4883C186.413 29.1441 185.826 28.6924 185.332 28.1331C184.848 27.5631 184.466 26.9285 184.186 26.2294C183.917 25.5196 183.783 24.8043 183.783 24.0837Z" fill="#FFD000"/>
<line x1="86.8894" y1="34.4696" x2="202.173" y2="34.4696" stroke="white" stroke-width="1.17636"/>
<path d="M97.4241 62.1575V54.6396L94.4879 60.2377H93.2457L90.3095 54.6396V62.1575H88.0831V50.7031H90.4708L93.8587 57.2208L97.2789 50.7031H99.6505V62.1575H97.4241ZM109.995 60.2054V62.1575H102.042V50.7031H109.85V52.6552H104.268V55.4139H109.092V57.2208H104.268V60.2054H109.995ZM120.298 52.6552H116.636V62.1575H114.425V52.6552H110.763V50.7031H120.298V52.6552ZM123.762 50.7031H126.021L130.231 62.1575H127.941L126.876 59.302H122.875L121.826 62.1575H119.535L123.762 50.7031ZM126.472 57.7371L124.891 53.0101L123.246 57.7371H126.472ZM131.488 62.1575V50.7031H133.714V60.2054H139.554V62.1575H131.488ZM145.466 62.2382C144.552 62.2382 143.772 62.0876 143.127 61.7865C142.492 61.4746 141.976 61.0497 141.578 60.512C141.191 59.9742 140.906 59.3665 140.723 58.6889C140.54 58.0006 140.448 57.2854 140.448 56.5433V50.7031H142.675V56.5433C142.675 57.0165 142.718 57.479 142.804 57.9307C142.901 58.3717 143.057 58.7696 143.272 59.1245C143.487 59.4795 143.772 59.7591 144.127 59.9634C144.482 60.1678 144.923 60.27 145.45 60.27C145.987 60.27 146.434 60.1678 146.789 59.9634C147.154 59.7483 147.439 59.4633 147.644 59.1084C147.859 58.7535 148.015 58.3555 148.112 57.9146C148.208 57.4628 148.257 57.0057 148.257 56.5433V50.7031H150.467V56.5433C150.467 57.3284 150.37 58.0651 150.177 58.7535C149.994 59.4418 149.698 60.0495 149.289 60.5765C148.891 61.0928 148.375 61.5015 147.741 61.8026C147.106 62.093 146.348 62.2382 145.466 62.2382ZM152.71 62.1575V50.7031H157.775C158.302 50.7031 158.786 50.8107 159.227 51.0258C159.679 51.2409 160.066 51.5313 160.389 51.897C160.722 52.2626 160.975 52.6713 161.147 53.1231C161.33 53.5748 161.421 54.0373 161.421 54.5105C161.421 54.9945 161.335 55.4623 161.163 55.9141C161.002 56.355 160.765 56.7422 160.453 57.0756C160.141 57.4091 159.776 57.6672 159.356 57.85L161.97 62.1575H159.518L157.162 58.3179H154.936V62.1575H152.71ZM154.936 56.3658H157.727C158.007 56.3658 158.254 56.2851 158.469 56.1238C158.684 55.9517 158.856 55.7259 158.985 55.4462C159.114 55.1666 159.179 54.8547 159.179 54.5105C159.179 54.1448 159.104 53.8275 158.953 53.5587C158.802 53.279 158.609 53.0585 158.372 52.8972C158.146 52.7359 157.899 52.6552 157.63 52.6552H154.936V56.3658ZM168.135 62.2382C167.393 62.2382 166.688 62.0876 166.021 61.7865C165.365 61.4853 164.785 61.0712 164.279 60.5442C163.784 60.0065 163.397 59.3827 163.117 58.6728C162.838 57.963 162.698 57.194 162.698 56.3658C162.698 55.5807 162.838 54.8439 163.117 54.1556C163.397 53.4565 163.79 52.8434 164.295 52.3164C164.801 51.7894 165.392 51.3753 166.07 51.0742C166.747 50.773 167.484 50.6225 168.28 50.6225C169.356 50.6225 170.275 50.8537 171.039 51.3162C171.813 51.7679 172.394 52.3702 172.781 53.1231L171.119 54.3492C170.829 53.7791 170.42 53.3436 169.893 53.0424C169.377 52.7413 168.812 52.5907 168.199 52.5907C167.715 52.5907 167.274 52.6929 166.876 52.8972C166.478 53.1016 166.134 53.3812 165.844 53.7361C165.554 54.091 165.328 54.4997 165.166 54.9622C165.016 55.4247 164.94 55.9141 164.94 56.4303C164.94 56.9788 165.021 57.4843 165.182 57.9468C165.355 58.4093 165.591 58.8126 165.892 59.1568C166.204 59.501 166.565 59.7752 166.973 59.9796C167.382 60.1732 167.834 60.27 168.328 60.27C168.909 60.27 169.463 60.1194 169.99 59.8183C170.528 59.5171 171.028 59.0761 171.49 58.4953V60.6894C170.533 61.7219 169.415 62.2382 168.135 62.2382ZM171.329 57.8984H169.022V56.269H173.168V62.1575H171.329V57.8984ZM175.066 62.1575V50.7031H177.292V62.1575H175.066ZM182.796 50.7031H185.054L189.265 62.1575H186.974L185.909 59.302H181.908L180.86 62.1575H178.569L182.796 50.7031ZM185.506 57.7371L183.925 53.0101L182.279 57.7371H185.506Z" fill="white"/>
<path d="M88.6842 40.4865H89.6253L91.3797 45.2592H90.4252L89.9816 44.0693H88.3145L87.8775 45.2592H86.923L88.6842 40.4865ZM89.8135 43.4173L89.1547 41.4477L88.4691 43.4173H89.8135ZM94.6876 41.7368C94.6562 41.7054 94.598 41.6628 94.5128 41.6091C94.4321 41.5553 94.3313 41.5038 94.2103 41.4545C94.0938 41.4052 93.9661 41.3626 93.8272 41.3267C93.6882 41.2864 93.5471 41.2662 93.4037 41.2662C93.1527 41.2662 92.9623 41.3133 92.8323 41.4074C92.7068 41.5015 92.6441 41.6337 92.6441 41.804C92.6441 41.934 92.6844 42.037 92.7651 42.1132C92.8457 42.1894 92.9667 42.2544 93.1281 42.3082C93.2894 42.3619 93.4911 42.4202 93.7331 42.4829C94.0467 42.5591 94.3179 42.6532 94.5464 42.7653C94.7795 42.8728 94.9565 43.0162 95.0775 43.1955C95.2029 43.3703 95.2657 43.6033 95.2657 43.8946C95.2657 44.15 95.2186 44.3696 95.1245 44.5533C95.0304 44.7326 94.9004 44.8782 94.7346 44.9903C94.5688 45.1023 94.3806 45.1852 94.17 45.239C93.9594 45.2883 93.7353 45.3129 93.4978 45.3129C93.2603 45.3129 93.0228 45.2883 92.7852 45.239C92.5477 45.1897 92.3192 45.1202 92.0996 45.0306C91.88 44.9365 91.6783 44.8245 91.4946 44.6945L91.9046 43.8946C91.945 43.9349 92.0167 43.9887 92.1198 44.0559C92.2228 44.1186 92.3483 44.1836 92.4962 44.2508C92.6441 44.3136 92.8054 44.3674 92.9802 44.4122C93.155 44.457 93.332 44.4794 93.5112 44.4794C93.7622 44.4794 93.9526 44.4368 94.0826 44.3517C94.2126 44.2665 94.2775 44.1455 94.2775 43.9887C94.2775 43.8453 94.226 43.7332 94.1229 43.6526C94.0199 43.5719 93.8765 43.5025 93.6927 43.4442C93.509 43.3815 93.2916 43.3142 93.0407 43.2425C92.7404 43.1574 92.4895 43.0633 92.2878 42.9602C92.0861 42.8527 91.936 42.7182 91.8374 42.5569C91.7388 42.3956 91.6895 42.1939 91.6895 41.9519C91.6895 41.6248 91.7657 41.3514 91.9181 41.1318C92.0749 40.9077 92.2856 40.7397 92.55 40.6276C92.8144 40.5111 93.1079 40.4529 93.4306 40.4529C93.6546 40.4529 93.8653 40.4775 94.0624 40.5268C94.2641 40.5761 94.4523 40.6411 94.6271 40.7218C94.8019 40.8024 94.9587 40.8898 95.0976 40.9839L94.6876 41.7368ZM99.2806 44.4458V45.2592H95.9667V40.4865H99.2202V41.2999H96.8943V42.4493H98.9042V43.2022H96.8943V44.4458H99.2806ZM102.847 41.7368C102.816 41.7054 102.758 41.6628 102.673 41.6091C102.592 41.5553 102.491 41.5038 102.37 41.4545C102.254 41.4052 102.126 41.3626 101.987 41.3267C101.848 41.2864 101.707 41.2662 101.563 41.2662C101.312 41.2662 101.122 41.3133 100.992 41.4074C100.867 41.5015 100.804 41.6337 100.804 41.804C100.804 41.934 100.844 42.037 100.925 42.1132C101.005 42.1894 101.126 42.2544 101.288 42.3082C101.449 42.3619 101.651 42.4202 101.893 42.4829C102.206 42.5591 102.478 42.6532 102.706 42.7653C102.939 42.8728 103.116 43.0162 103.237 43.1955C103.363 43.3703 103.425 43.6033 103.425 43.8946C103.425 44.15 103.378 44.3696 103.284 44.5533C103.19 44.7326 103.06 44.8782 102.894 44.9903C102.729 45.1023 102.54 45.1852 102.33 45.239C102.119 45.2883 101.895 45.3129 101.657 45.3129C101.42 45.3129 101.182 45.2883 100.945 45.239C100.707 45.1897 100.479 45.1202 100.259 45.0306C100.04 44.9365 99.838 44.8245 99.6543 44.6945L100.064 43.8946C100.105 43.9349 100.176 43.9887 100.279 44.0559C100.383 44.1186 100.508 44.1836 100.656 44.2508C100.804 44.3136 100.965 44.3674 101.14 44.4122C101.315 44.457 101.492 44.4794 101.671 44.4794C101.922 44.4794 102.112 44.4368 102.242 44.3517C102.372 44.2665 102.437 44.1455 102.437 43.9887C102.437 43.8453 102.386 43.7332 102.283 43.6526C102.18 43.5719 102.036 43.5025 101.852 43.4442C101.669 43.3815 101.451 43.3142 101.2 43.2425C100.9 43.1574 100.649 43.0633 100.448 42.9602C100.246 42.8527 100.096 42.7182 99.9971 42.5569C99.8985 42.3956 99.8492 42.1939 99.8492 41.9519C99.8492 41.6248 99.9254 41.3514 100.078 41.1318C100.235 40.9077 100.445 40.7397 100.71 40.6276C100.974 40.5111 101.268 40.4529 101.59 40.4529C101.814 40.4529 102.025 40.4775 102.222 40.5268C102.424 40.5761 102.612 40.6411 102.787 40.7218C102.962 40.8024 103.118 40.8898 103.257 40.9839L102.847 41.7368ZM106.163 45.2928C105.814 45.2928 105.495 45.2255 105.209 45.0911C104.926 44.9567 104.682 44.7752 104.476 44.5466C104.274 44.3136 104.117 44.0537 104.005 43.7669C103.893 43.4756 103.837 43.1776 103.837 42.8728C103.837 42.5546 103.896 42.2521 104.012 41.9653C104.133 41.6741 104.297 41.4164 104.503 41.1923C104.713 40.9638 104.96 40.7845 105.242 40.6545C105.529 40.5201 105.843 40.4529 106.183 40.4529C106.528 40.4529 106.842 40.5223 107.124 40.6613C107.411 40.8002 107.655 40.9862 107.857 41.2192C108.059 41.4522 108.216 41.7121 108.328 41.999C108.44 42.2858 108.496 42.5815 108.496 42.8863C108.496 43.2 108.437 43.5025 108.321 43.7937C108.204 44.0806 108.041 44.3382 107.83 44.5668C107.624 44.7909 107.378 44.9679 107.091 45.0978C106.808 45.2278 106.499 45.2928 106.163 45.2928ZM104.778 42.8728C104.778 43.079 104.81 43.2784 104.873 43.4711C104.935 43.6638 105.025 43.8363 105.141 43.9887C105.262 44.1366 105.408 44.2553 105.578 44.345C105.753 44.4301 105.95 44.4727 106.17 44.4727C106.394 44.4727 106.593 44.4279 106.768 44.3382C106.943 44.2441 107.089 44.1209 107.205 43.9685C107.322 43.8117 107.409 43.6391 107.467 43.4509C107.53 43.2582 107.561 43.0655 107.561 42.8728C107.561 42.6667 107.528 42.4695 107.461 42.2813C107.398 42.0886 107.306 41.9183 107.185 41.7704C107.068 41.618 106.923 41.4993 106.748 41.4141C106.578 41.3245 106.385 41.2797 106.17 41.2797C105.941 41.2797 105.74 41.3267 105.565 41.4209C105.395 41.5105 105.251 41.6315 105.135 41.7838C105.018 41.9362 104.929 42.1065 104.866 42.2947C104.808 42.4829 104.778 42.6756 104.778 42.8728ZM109.207 45.2592V40.4865H111.318C111.538 40.4865 111.739 40.5313 111.923 40.6209C112.111 40.7106 112.273 40.8316 112.407 40.9839C112.546 41.1363 112.651 41.3066 112.723 41.4948C112.799 41.683 112.837 41.8757 112.837 42.0729C112.837 42.2746 112.801 42.4695 112.73 42.6577C112.662 42.8415 112.564 43.0028 112.434 43.1417C112.304 43.2806 112.152 43.3882 111.977 43.4644L113.066 45.2592H112.044L111.063 43.6593H110.135V45.2592H109.207ZM110.135 42.8459H111.298C111.414 42.8459 111.517 42.8123 111.607 42.7451C111.697 42.6734 111.768 42.5793 111.822 42.4628C111.876 42.3463 111.903 42.2163 111.903 42.0729C111.903 41.9205 111.871 41.7883 111.809 41.6763C111.746 41.5598 111.665 41.4679 111.567 41.4007C111.473 41.3335 111.37 41.2999 111.258 41.2999H110.135V42.8459ZM113.678 45.2592V40.4865H114.605V45.2592H113.678ZM114.437 40.0832L113.859 39.9084L114.222 39.1085H115.062L114.437 40.0832ZM116.899 40.4865H117.84L119.594 45.2592H118.64L118.196 44.0693H116.529L116.092 45.2592H115.137L116.899 40.4865ZM118.028 43.4173L117.369 41.4477L116.683 43.4173H118.028Z" fill="white"/>
</svg>
